<svg width="1280" height="720" viewBox="0 0 1280 720" fill="none" xmlns="http://www.w3.org/2000/svg">
<g clip-path="url(#clip0_205_4)">
<rect width="1280" height="720" fill="#2EA254"/>
<path d="M362 720H-0.000183105L-0.000144958 358C199.927 358 362 520.073 362 720Z" fill="#26944A"/>
<path d="M286 720H0V434C157.953 434 286 562.047 286 720Z" fill="#2EA254"/>
<path d="M219 720H-0.00012207L-7.24792e-05 501C120.95 501 219 599.05 219 720Z" fill="#26944A"/>
<path d="M672.5 139C536.9 151.8 444.667 51 415.5 -1L1279.5 2.5V720.5H1183C884.2 682.5 934.5 531 997 460C1033.5 410.167 1099.5 290.1 1071.5 208.5C1036.5 106.5 842 123 672.5 139Z" fill="#26944A"/>
</g>
<defs>
<clipPath id="clip0_205_4">
<rect width="1280" height="720" fill="white"/>
</clipPath>
</defs>
</svg>
